# Wavefront OBJ file automatically generated by Tiled2Unity

# Vertices (Count = 401)
v -17.25 -20.25 0
v -17.5 -20.25 0
v -17.5 -20 0
v -17.25 -20 0
v -17.75 -20.25 0
v -17.75 -20 0
v -17.25 -20.5 0
v -17.5 -20.5 0
v -17.75 -20.5 0
v -15.25 -21.75 0
v -15.5 -21.75 0
v -15.5 -21.5 0
v -15.25 -21.5 0
v -15.75 -21.75 0
v -15.75 -21.5 0
v -15.25 -22 0
v -15.5 -22 0
v -15.75 -22 0
v -11.25 -22.25 0
v -11.5 -22.25 0
v -11.5 -22 0
v -11.25 -22 0
v -11.75 -22.25 0
v -11.75 -22 0
v -14.75 -22.25 0
v -15 -22.25 0
v -15 -22 0
v -14.75 -22 0
v -15.25 -22.25 0
v -15.5 -22.25 0
v -15.75 -22.25 0
v -11.25 -22.5 0
v -11.5 -22.5 0
v -11.75 -22.5 0
v -14.75 -22.5 0
v -15 -22.5 0
v -15.25 -22.5 0
v -15.5 -22.5 0
v -8 -23 0
v -8.25 -23 0
v -8.25 -22.75 0
v -8 -22.75 0
v -8.5 -23 0
v -8.5 -22.75 0
v -5.25 -23.25 0
v -5.5 -23.25 0
v -5.5 -23 0
v -5.25 -23 0
v -5.75 -23.25 0
v -5.75 -23 0
v -6.5 -23.25 0
v -6.75 -23.25 0
v -6.75 -23 0
v -6.5 -23 0
v -7 -23.25 0
v -7 -23 0
v -8 -23.25 0
v -8.25 -23.25 0
v -8.5 -23.25 0
v -17.75 -23.25 0
v -18 -23.25 0
v -18 -23 0
v -17.75 -23 0
v -18.25 -23.25 0
v -18.25 -23 0
v -5.25 -23.5 0
v -5.5 -23.5 0
v -5.75 -23.5 0
v -6.5 -23.5 0
v -6.75 -23.5 0
v -7 -23.5 0
v -17.75 -23.5 0
v -18 -23.5 0
v -18.25 -23.5 0
v -21.25 -23.75 0
v -21.5 -23.75 0
v -21.5 -23.5 0
v -21.25 -23.5 0
v -21.75 -23.75 0
v -21.75 -23.5 0
v -14.5 -24 0
v -14.75 -24 0
v -14.75 -23.75 0
v -14.5 -23.75 0
v -15 -24 0
v -15 -23.75 0
v -21.25 -24 0
v -21.5 -24 0
v -21.75 -24 0
v -14.5 -24.25 0
v -14.75 -24.25 0
v -15 -24.25 0
v -22.75 -24.25 0
v -23 -24.25 0
v -23 -24 0
v -22.75 -24 0
v -23.25 -24.25 0
v -23.25 -24 0
v -22.75 -24.5 0
v -23 -24.5 0
v -23.25 -24.5 0
v 0 -24.75 0
v -0.25 -24.75 0
v -0.25 -24.5 0
v 0 -24.5 0
v -0.5 -24.75 0
v -0.5 -24.5 0
v -0.75 -24.75 0
v -0.75 -24.5 0
v -1 -24.75 0
v -1 -24.5 0
v -1.25 -24.75 0
v -1.25 -24.5 0
v -1.5 -24.75 0
v -1.5 -24.5 0
v -1.75 -24.75 0
v -1.75 -24.5 0
v -2 -24.75 0
v -2 -24.5 0
v -2.25 -24.75 0
v -2.25 -24.5 0
v -2.5 -24.75 0
v -2.5 -24.5 0
v -2.75 -24.75 0
v -2.75 -24.5 0
v -3 -24.75 0
v -3 -24.5 0
v -3.25 -24.75 0
v -3.25 -24.5 0
v -3.5 -24.75 0
v -3.5 -24.5 0
v -3.75 -24.75 0
v -3.75 -24.5 0
v -4 -24.75 0
v -4 -24.5 0
v -4.25 -24.75 0
v -4.25 -24.5 0
v -4.5 -24.75 0
v -4.5 -24.5 0
v -4.75 -24.75 0
v -4.75 -24.5 0
v -5 -24.75 0
v -5 -24.5 0
v -5.25 -24.75 0
v -5.25 -24.5 0
v -5.5 -24.75 0
v -5.5 -24.5 0
v -5.75 -24.75 0
v -5.75 -24.5 0
v -6 -24.75 0
v -6 -24.5 0
v -6.25 -24.75 0
v -6.25 -24.5 0
v -6.5 -24.75 0
v -6.5 -24.5 0
v -6.75 -24.75 0
v -6.75 -24.5 0
v -7 -24.75 0
v -7 -24.5 0
v -7.25 -24.75 0
v -7.25 -24.5 0
v -7.5 -24.75 0
v -7.5 -24.5 0
v -7.75 -24.75 0
v -7.75 -24.5 0
v -8 -24.75 0
v -8 -24.5 0
v -8.25 -24.75 0
v -8.25 -24.5 0
v -8.5 -24.75 0
v -8.5 -24.5 0
v -8.75 -24.75 0
v -8.75 -24.5 0
v -9 -24.75 0
v -9 -24.5 0
v -9.25 -24.75 0
v -9.25 -24.5 0
v -9.5 -24.75 0
v -9.5 -24.5 0
v -9.75 -24.75 0
v -9.75 -24.5 0
v -10 -24.75 0
v -10 -24.5 0
v -10.25 -24.75 0
v -10.25 -24.5 0
v -10.5 -24.75 0
v -10.5 -24.5 0
v -10.75 -24.75 0
v -10.75 -24.5 0
v -11 -24.75 0
v -11 -24.5 0
v -11.25 -24.75 0
v -11.25 -24.5 0
v -11.5 -24.75 0
v -11.5 -24.5 0
v -11.75 -24.75 0
v -11.75 -24.5 0
v -12 -24.75 0
v -12 -24.5 0
v -12.25 -24.75 0
v -12.25 -24.5 0
v -12.5 -24.75 0
v -12.5 -24.5 0
v -12.75 -24.75 0
v -12.75 -24.5 0
v -13 -24.75 0
v -13 -24.5 0
v -13.25 -24.75 0
v -13.25 -24.5 0
v -13.5 -24.75 0
v -13.5 -24.5 0
v -13.75 -24.75 0
v -13.75 -24.5 0
v -14 -24.75 0
v -14 -24.5 0
v -14.25 -24.75 0
v -14.25 -24.5 0
v -14.5 -24.75 0
v -14.5 -24.5 0
v -14.75 -24.75 0
v -14.75 -24.5 0
v -15 -24.75 0
v -15 -24.5 0
v -15.25 -24.75 0
v -15.25 -24.5 0
v -15.5 -24.75 0
v -15.5 -24.5 0
v -15.75 -24.75 0
v -15.75 -24.5 0
v -16 -24.75 0
v -16 -24.5 0
v -16.25 -24.75 0
v -16.25 -24.5 0
v -16.5 -24.75 0
v -16.5 -24.5 0
v -16.75 -24.75 0
v -16.75 -24.5 0
v -17 -24.75 0
v -17 -24.5 0
v -17.25 -24.75 0
v -17.25 -24.5 0
v -17.5 -24.75 0
v -17.5 -24.5 0
v -17.75 -24.75 0
v -17.75 -24.5 0
v -18 -24.75 0
v -18 -24.5 0
v -18.25 -24.75 0
v -18.25 -24.5 0
v -18.5 -24.75 0
v -18.5 -24.5 0
v -18.75 -24.75 0
v -18.75 -24.5 0
v -19 -24.75 0
v -19 -24.5 0
v -19.25 -24.75 0
v -19.25 -24.5 0
v -19.5 -24.75 0
v -19.5 -24.5 0
v -19.75 -24.75 0
v -19.75 -24.5 0
v -20 -24.75 0
v -20 -24.5 0
v -20.25 -24.75 0
v -20.25 -24.5 0
v -20.5 -24.75 0
v -20.5 -24.5 0
v -20.75 -24.75 0
v -20.75 -24.5 0
v -21 -24.75 0
v -21 -24.5 0
v -21.25 -24.75 0
v -21.25 -24.5 0
v -21.5 -24.75 0
v -21.5 -24.5 0
v -21.75 -24.75 0
v -21.75 -24.5 0
v -22 -24.75 0
v -22 -24.5 0
v -22.25 -24.75 0
v -22.25 -24.5 0
v -22.5 -24.75 0
v -22.5 -24.5 0
v -22.75 -24.75 0
v -23 -24.75 0
v -23.25 -24.75 0
v -23.5 -24.75 0
v -23.5 -24.5 0
v -23.75 -24.75 0
v -23.75 -24.5 0
v -24 -24.75 0
v -24 -24.5 0
v -24.25 -24.75 0
v -24.25 -24.5 0
v -24.5 -24.75 0
v -24.5 -24.5 0
v -24.75 -24.75 0
v -24.75 -24.5 0
v -25 -24.75 0
v -25 -24.5 0
v 0 -25 0
v -0.25 -25 0
v -0.5 -25 0
v -0.75 -25 0
v -1 -25 0
v -1.25 -25 0
v -1.5 -25 0
v -1.75 -25 0
v -2 -25 0
v -2.25 -25 0
v -2.5 -25 0
v -2.75 -25 0
v -3 -25 0
v -3.25 -25 0
v -3.5 -25 0
v -3.75 -25 0
v -4 -25 0
v -4.25 -25 0
v -4.5 -25 0
v -4.75 -25 0
v -5 -25 0
v -5.25 -25 0
v -5.5 -25 0
v -5.75 -25 0
v -6 -25 0
v -6.25 -25 0
v -6.5 -25 0
v -6.75 -25 0
v -7 -25 0
v -7.25 -25 0
v -7.5 -25 0
v -7.75 -25 0
v -8 -25 0
v -8.25 -25 0
v -8.5 -25 0
v -8.75 -25 0
v -9 -25 0
v -9.25 -25 0
v -9.5 -25 0
v -9.75 -25 0
v -10 -25 0
v -10.25 -25 0
v -10.5 -25 0
v -10.75 -25 0
v -11 -25 0
v -11.25 -25 0
v -11.5 -25 0
v -11.75 -25 0
v -12 -25 0
v -12.25 -25 0
v -12.5 -25 0
v -12.75 -25 0
v -13 -25 0
v -13.25 -25 0
v -13.5 -25 0
v -13.75 -25 0
v -14 -25 0
v -14.25 -25 0
v -14.5 -25 0
v -14.75 -25 0
v -15 -25 0
v -15.25 -25 0
v -15.5 -25 0
v -15.75 -25 0
v -16 -25 0
v -16.25 -25 0
v -16.5 -25 0
v -16.75 -25 0
v -17 -25 0
v -17.25 -25 0
v -17.5 -25 0
v -17.75 -25 0
v -18 -25 0
v -18.25 -25 0
v -18.5 -25 0
v -18.75 -25 0
v -19 -25 0
v -19.25 -25 0
v -19.5 -25 0
v -19.75 -25 0
v -20 -25 0
v -20.25 -25 0
v -20.5 -25 0
v -20.75 -25 0
v -21 -25 0
v -21.25 -25 0
v -21.5 -25 0
v -21.75 -25 0
v -22 -25 0
v -22.25 -25 0
v -22.5 -25 0
v -22.75 -25 0
v -23 -25 0
v -23.25 -25 0
v -23.5 -25 0
v -23.75 -25 0
v -24 -25 0
v -24.25 -25 0
v -24.5 -25 0
v -24.75 -25 0
v -25 -25 0

# Texture cooridinates (Count = 16)
vt 0.1250025 0.2916718
vt 0.1458308 0.2916718
vt 0.1458308 0.3333282
vt 0.1250025 0.3333282
vt 0.1458359 0.2916718
vt 0.1666641 0.2916718
vt 0.1666641 0.3333282
vt 0.1458359 0.3333282
vt 0.1250025 0.2500051
vt 0.1458308 0.2500051
vt 0.1458308 0.2916616
vt 0.1250025 0.2916616
vt 0.1458359 0.2500051
vt 0.1666641 0.2500051
vt 0.1666641 0.2916616
vt 0.1458359 0.2916616

# Normal
vn 0 0 -1

# Groups (Count = 1)

g mesh_0001
f 1/1/1 2/2/1 3/3/1 4/4/1
f 2/5/1 5/6/1 6/7/1 3/8/1
f 7/9/1 8/10/1 2/11/1 1/12/1
f 8/13/1 9/14/1 5/15/1 2/16/1
f 10/1/1 11/2/1 12/3/1 13/4/1
f 11/5/1 14/6/1 15/7/1 12/8/1
f 16/9/1 17/10/1 11/11/1 10/12/1
f 17/13/1 18/14/1 14/15/1 11/16/1
f 19/1/1 20/2/1 21/3/1 22/4/1
f 20/5/1 23/6/1 24/7/1 21/8/1
f 25/9/1 26/10/1 27/11/1 28/12/1
f 26/9/1 29/10/1 16/11/1 27/12/1
f 29/9/1 30/10/1 17/11/1 16/12/1
f 30/13/1 31/14/1 18/15/1 17/16/1
f 32/9/1 33/10/1 20/11/1 19/12/1
f 33/13/1 34/14/1 23/15/1 20/16/1
f 35/9/1 36/10/1 26/11/1 25/12/1
f 36/13/1 37/14/1 29/15/1 26/16/1
f 37/13/1 38/14/1 30/15/1 29/16/1
f 39/1/1 40/2/1 41/3/1 42/4/1
f 40/5/1 43/6/1 44/7/1 41/8/1
f 45/1/1 46/2/1 47/3/1 48/4/1
f 46/1/1 49/2/1 50/3/1 47/4/1
f 51/1/1 52/2/1 53/3/1 54/4/1
f 52/5/1 55/6/1 56/7/1 53/8/1
f 57/9/1 58/10/1 40/11/1 39/12/1
f 58/13/1 59/14/1 43/15/1 40/16/1
f 60/1/1 61/2/1 62/3/1 63/4/1
f 61/5/1 64/6/1 65/7/1 62/8/1
f 66/9/1 67/10/1 46/11/1 45/12/1
f 67/9/1 68/10/1 49/11/1 46/12/1
f 69/9/1 70/10/1 52/11/1 51/12/1
f 70/13/1 71/14/1 55/15/1 52/16/1
f 72/9/1 73/10/1 61/11/1 60/12/1
f 73/13/1 74/14/1 64/15/1 61/16/1
f 75/1/1 76/2/1 77/3/1 78/4/1
f 76/5/1 79/6/1 80/7/1 77/8/1
f 81/1/1 82/2/1 83/3/1 84/4/1
f 82/5/1 85/6/1 86/7/1 83/8/1
f 87/9/1 88/10/1 76/11/1 75/12/1
f 88/13/1 89/14/1 79/15/1 76/16/1
f 90/9/1 91/10/1 82/11/1 81/12/1
f 91/13/1 92/14/1 85/15/1 82/16/1
f 93/1/1 94/2/1 95/3/1 96/4/1
f 94/5/1 97/6/1 98/7/1 95/8/1
f 99/9/1 100/10/1 94/11/1 93/12/1
f 100/13/1 101/14/1 97/15/1 94/16/1
f 102/1/1 103/2/1 104/3/1 105/4/1
f 103/5/1 106/6/1 107/7/1 104/8/1
f 106/1/1 108/2/1 109/3/1 107/4/1
f 108/5/1 110/6/1 111/7/1 109/8/1
f 110/1/1 112/2/1 113/3/1 111/4/1
f 112/5/1 114/6/1 115/7/1 113/8/1
f 114/1/1 116/2/1 117/3/1 115/4/1
f 116/5/1 118/6/1 119/7/1 117/8/1
f 118/1/1 120/2/1 121/3/1 119/4/1
f 120/5/1 122/6/1 123/7/1 121/8/1
f 122/1/1 124/2/1 125/3/1 123/4/1
f 124/5/1 126/6/1 127/7/1 125/8/1
f 126/1/1 128/2/1 129/3/1 127/4/1
f 128/5/1 130/6/1 131/7/1 129/8/1
f 130/1/1 132/2/1 133/3/1 131/4/1
f 132/5/1 134/6/1 135/7/1 133/8/1
f 134/1/1 136/2/1 137/3/1 135/4/1
f 136/5/1 138/6/1 139/7/1 137/8/1
f 138/1/1 140/2/1 141/3/1 139/4/1
f 140/5/1 142/6/1 143/7/1 141/8/1
f 142/1/1 144/2/1 145/3/1 143/4/1
f 144/5/1 146/6/1 147/7/1 145/8/1
f 146/1/1 148/2/1 149/3/1 147/4/1
f 148/5/1 150/6/1 151/7/1 149/8/1
f 150/1/1 152/2/1 153/3/1 151/4/1
f 152/5/1 154/6/1 155/7/1 153/8/1
f 154/1/1 156/2/1 157/3/1 155/4/1
f 156/5/1 158/6/1 159/7/1 157/8/1
f 158/1/1 160/2/1 161/3/1 159/4/1
f 160/5/1 162/6/1 163/7/1 161/8/1
f 162/1/1 164/2/1 165/3/1 163/4/1
f 164/5/1 166/6/1 167/7/1 165/8/1
f 166/1/1 168/2/1 169/3/1 167/4/1
f 168/5/1 170/6/1 171/7/1 169/8/1
f 170/1/1 172/2/1 173/3/1 171/4/1
f 172/5/1 174/6/1 175/7/1 173/8/1
f 174/1/1 176/2/1 177/3/1 175/4/1
f 176/5/1 178/6/1 179/7/1 177/8/1
f 178/1/1 180/2/1 181/3/1 179/4/1
f 180/5/1 182/6/1 183/7/1 181/8/1
f 182/1/1 184/2/1 185/3/1 183/4/1
f 184/5/1 186/6/1 187/7/1 185/8/1
f 186/1/1 188/2/1 189/3/1 187/4/1
f 188/5/1 190/6/1 191/7/1 189/8/1
f 190/1/1 192/2/1 193/3/1 191/4/1
f 192/5/1 194/6/1 195/7/1 193/8/1
f 194/1/1 196/2/1 197/3/1 195/4/1
f 196/5/1 198/6/1 199/7/1 197/8/1
f 198/1/1 200/2/1 201/3/1 199/4/1
f 200/5/1 202/6/1 203/7/1 201/8/1
f 202/1/1 204/2/1 205/3/1 203/4/1
f 204/5/1 206/6/1 207/7/1 205/8/1
f 206/1/1 208/2/1 209/3/1 207/4/1
f 208/5/1 210/6/1 211/7/1 209/8/1
f 210/1/1 212/2/1 213/3/1 211/4/1
f 212/5/1 214/6/1 215/7/1 213/8/1
f 214/1/1 216/2/1 217/3/1 215/4/1
f 216/5/1 218/6/1 219/7/1 217/8/1
f 218/1/1 220/2/1 221/3/1 219/4/1
f 220/5/1 222/6/1 223/7/1 221/8/1
f 222/1/1 224/2/1 225/3/1 223/4/1
f 224/5/1 226/6/1 227/7/1 225/8/1
f 226/1/1 228/2/1 229/3/1 227/4/1
f 228/5/1 230/6/1 231/7/1 229/8/1
f 230/1/1 232/2/1 233/3/1 231/4/1
f 232/5/1 234/6/1 235/7/1 233/8/1
f 234/1/1 236/2/1 237/3/1 235/4/1
f 236/5/1 238/6/1 239/7/1 237/8/1
f 238/1/1 240/2/1 241/3/1 239/4/1
f 240/5/1 242/6/1 243/7/1 241/8/1
f 242/1/1 244/2/1 245/3/1 243/4/1
f 244/5/1 246/6/1 247/7/1 245/8/1
f 246/1/1 248/2/1 249/3/1 247/4/1
f 248/5/1 250/6/1 251/7/1 249/8/1
f 250/1/1 252/2/1 253/3/1 251/4/1
f 252/5/1 254/6/1 255/7/1 253/8/1
f 254/1/1 256/2/1 257/3/1 255/4/1
f 256/5/1 258/6/1 259/7/1 257/8/1
f 258/1/1 260/2/1 261/3/1 259/4/1
f 260/5/1 262/6/1 263/7/1 261/8/1
f 262/1/1 264/2/1 265/3/1 263/4/1
f 264/5/1 266/6/1 267/7/1 265/8/1
f 266/1/1 268/2/1 269/3/1 267/4/1
f 268/5/1 270/6/1 271/7/1 269/8/1
f 270/1/1 272/2/1 273/3/1 271/4/1
f 272/5/1 274/6/1 275/7/1 273/8/1
f 274/1/1 276/2/1 277/3/1 275/4/1
f 276/5/1 278/6/1 279/7/1 277/8/1
f 278/1/1 280/2/1 281/3/1 279/4/1
f 280/5/1 282/6/1 283/7/1 281/8/1
f 282/1/1 284/2/1 99/3/1 283/4/1
f 284/5/1 285/6/1 100/7/1 99/8/1
f 285/1/1 286/2/1 101/3/1 100/4/1
f 286/5/1 287/6/1 288/7/1 101/8/1
f 287/1/1 289/2/1 290/3/1 288/4/1
f 289/5/1 291/6/1 292/7/1 290/8/1
f 291/1/1 293/2/1 294/3/1 292/4/1
f 293/5/1 295/6/1 296/7/1 294/8/1
f 295/1/1 297/2/1 298/3/1 296/4/1
f 297/5/1 299/6/1 300/7/1 298/8/1
f 301/9/1 302/10/1 103/11/1 102/12/1
f 302/13/1 303/14/1 106/15/1 103/16/1
f 303/9/1 304/10/1 108/11/1 106/12/1
f 304/13/1 305/14/1 110/15/1 108/16/1
f 305/9/1 306/10/1 112/11/1 110/12/1
f 306/13/1 307/14/1 114/15/1 112/16/1
f 307/9/1 308/10/1 116/11/1 114/12/1
f 308/13/1 309/14/1 118/15/1 116/16/1
f 309/9/1 310/10/1 120/11/1 118/12/1
f 310/13/1 311/14/1 122/15/1 120/16/1
f 311/9/1 312/10/1 124/11/1 122/12/1
f 312/13/1 313/14/1 126/15/1 124/16/1
f 313/9/1 314/10/1 128/11/1 126/12/1
f 314/13/1 315/14/1 130/15/1 128/16/1
f 315/9/1 316/10/1 132/11/1 130/12/1
f 316/13/1 317/14/1 134/15/1 132/16/1
f 317/9/1 318/10/1 136/11/1 134/12/1
f 318/13/1 319/14/1 138/15/1 136/16/1
f 319/9/1 320/10/1 140/11/1 138/12/1
f 320/13/1 321/14/1 142/15/1 140/16/1
f 321/9/1 322/10/1 144/11/1 142/12/1
f 322/13/1 323/14/1 146/15/1 144/16/1
f 323/9/1 324/10/1 148/11/1 146/12/1
f 324/13/1 325/14/1 150/15/1 148/16/1
f 325/9/1 326/10/1 152/11/1 150/12/1
f 326/13/1 327/14/1 154/15/1 152/16/1
f 327/9/1 328/10/1 156/11/1 154/12/1
f 328/13/1 329/14/1 158/15/1 156/16/1
f 329/9/1 330/10/1 160/11/1 158/12/1
f 330/13/1 331/14/1 162/15/1 160/16/1
f 331/9/1 332/10/1 164/11/1 162/12/1
f 332/13/1 333/14/1 166/15/1 164/16/1
f 333/9/1 334/10/1 168/11/1 166/12/1
f 334/13/1 335/14/1 170/15/1 168/16/1
f 335/9/1 336/10/1 172/11/1 170/12/1
f 336/13/1 337/14/1 174/15/1 172/16/1
f 337/9/1 338/10/1 176/11/1 174/12/1
f 338/13/1 339/14/1 178/15/1 176/16/1
f 339/9/1 340/10/1 180/11/1 178/12/1
f 340/13/1 341/14/1 182/15/1 180/16/1
f 341/9/1 342/10/1 184/11/1 182/12/1
f 342/13/1 343/14/1 186/15/1 184/16/1
f 343/9/1 344/10/1 188/11/1 186/12/1
f 344/13/1 345/14/1 190/15/1 188/16/1
f 345/9/1 346/10/1 192/11/1 190/12/1
f 346/13/1 347/14/1 194/15/1 192/16/1
f 347/9/1 348/10/1 196/11/1 194/12/1
f 348/13/1 349/14/1 198/15/1 196/16/1
f 349/9/1 350/10/1 200/11/1 198/12/1
f 350/13/1 351/14/1 202/15/1 200/16/1
f 351/9/1 352/10/1 204/11/1 202/12/1
f 352/13/1 353/14/1 206/15/1 204/16/1
f 353/9/1 354/10/1 208/11/1 206/12/1
f 354/13/1 355/14/1 210/15/1 208/16/1
f 355/9/1 356/10/1 212/11/1 210/12/1
f 356/13/1 357/14/1 214/15/1 212/16/1
f 357/9/1 358/10/1 216/11/1 214/12/1
f 358/13/1 359/14/1 218/15/1 216/16/1
f 359/9/1 360/10/1 220/11/1 218/12/1
f 360/13/1 361/14/1 222/15/1 220/16/1
f 361/9/1 362/10/1 224/11/1 222/12/1
f 362/13/1 363/14/1 226/15/1 224/16/1
f 363/9/1 364/10/1 228/11/1 226/12/1
f 364/13/1 365/14/1 230/15/1 228/16/1
f 365/9/1 366/10/1 232/11/1 230/12/1
f 366/13/1 367/14/1 234/15/1 232/16/1
f 367/9/1 368/10/1 236/11/1 234/12/1
f 368/13/1 369/14/1 238/15/1 236/16/1
f 369/9/1 370/10/1 240/11/1 238/12/1
f 370/13/1 371/14/1 242/15/1 240/16/1
f 371/9/1 372/10/1 244/11/1 242/12/1
f 372/13/1 373/14/1 246/15/1 244/16/1
f 373/9/1 374/10/1 248/11/1 246/12/1
f 374/13/1 375/14/1 250/15/1 248/16/1
f 375/9/1 376/10/1 252/11/1 250/12/1
f 376/13/1 377/14/1 254/15/1 252/16/1
f 377/9/1 378/10/1 256/11/1 254/12/1
f 378/13/1 379/14/1 258/15/1 256/16/1
f 379/9/1 380/10/1 260/11/1 258/12/1
f 380/13/1 381/14/1 262/15/1 260/16/1
f 381/9/1 382/10/1 264/11/1 262/12/1
f 382/13/1 383/14/1 266/15/1 264/16/1
f 383/9/1 384/10/1 268/11/1 266/12/1
f 384/13/1 385/14/1 270/15/1 268/16/1
f 385/9/1 386/10/1 272/11/1 270/12/1
f 386/13/1 387/14/1 274/15/1 272/16/1
f 387/9/1 388/10/1 276/11/1 274/12/1
f 388/13/1 389/14/1 278/15/1 276/16/1
f 389/9/1 390/10/1 280/11/1 278/12/1
f 390/13/1 391/14/1 282/15/1 280/16/1
f 391/9/1 392/10/1 284/11/1 282/12/1
f 392/13/1 393/14/1 285/15/1 284/16/1
f 393/9/1 394/10/1 286/11/1 285/12/1
f 394/13/1 395/14/1 287/15/1 286/16/1
f 395/9/1 396/10/1 289/11/1 287/12/1
f 396/13/1 397/14/1 291/15/1 289/16/1
f 397/9/1 398/10/1 293/11/1 291/12/1
f 398/13/1 399/14/1 295/15/1 293/16/1
f 399/9/1 400/10/1 297/11/1 295/12/1
f 400/13/1 401/14/1 299/15/1 297/16/1

